<svg width="757" height="923" viewBox="0 0 757 923" fill="none" xmlns="http://www.w3.org/2000/svg">
<path fill-rule="evenodd" clip-rule="evenodd" d="M534.591 -21.924C593.329 -9.74156 610.041 71.2062 662.29 100.728C715.379 130.725 812.824 91.5618 835.66 148.187C860.189 209.012 765.436 258.241 751.678 322.379C741.945 367.752 796.405 420.563 769.181 458.107C740.892 497.12 673.959 468.068 630.707 489.211C591.923 508.17 574.104 555.4 534.591 572.784C483.641 595.201 414.222 640.185 373.204 602.504C327.443 560.466 404.282 469.145 367.344 419.145C322.334 358.219 196.647 391.798 166.258 322.379C141.158 265.044 216.967 210.479 253.885 159.969C287.536 113.928 324.411 71.5573 372.234 40.5694C421.761 8.47675 476.836 -33.9026 534.591 -21.924Z" fill="url(#paint0_linear_49_740)" style="mix-blend-mode:hard-light"/>
<path fill-rule="evenodd" clip-rule="evenodd" d="M653.41 275.3C720.807 253.625 735.847 138.953 806.229 131.419C857.545 125.926 870.42 209.97 904.99 248.371C941.784 289.241 1024.95 311.598 1017.54 366.139C1008.53 432.437 893.829 436.33 870.916 499.175C852.18 550.565 927.8 603.644 911.865 655.974C897.42 703.412 845.204 749.095 795.822 745.776C735.838 741.744 709.772 659.569 653.41 638.603C621.539 626.748 588.051 652.857 554.19 655.895C497.849 660.951 436.187 690.08 386.748 662.534C341.928 637.561 305.909 574.916 320.351 525.606C337.98 465.411 420.181 452.336 461.985 405.641C481.742 383.573 487.527 353.359 499.016 326.038C514.383 289.496 503.903 228.911 541.503 216.555C582.025 203.238 612.805 288.359 653.41 275.3Z" fill="url(#paint1_linear_49_740)" style="mix-blend-mode:hard-light"/>
<path fill-rule="evenodd" clip-rule="evenodd" d="M510.342 287.287C557.121 258.367 616.977 214.763 666.052 239.571C715.573 264.605 697.049 344.766 722.122 394.345C741.599 432.856 785.905 456.301 796.787 498.076C807.725 540.066 800.053 586.189 782.422 625.826C765.739 663.335 717.356 678.018 700.168 715.297C675.919 767.889 704.431 841.763 663.842 883.017C626.976 920.487 554.071 937.36 510.342 908.232C455.14 871.463 487.164 763.834 431.282 728.112C384.957 698.499 323.184 771.52 270.746 755.071C220.438 739.29 159.247 696.213 161.315 643.426C163.67 583.312 264.719 569.075 280.308 510.979C294.982 456.291 197.366 384.499 240.582 348.011C289.535 306.68 363.506 402.061 425.961 388.002C469.181 378.273 472.641 310.595 510.342 287.287Z" fill="url(#paint2_linear_49_740)" style="mix-blend-mode:hard-light"/>
<path fill-rule="evenodd" clip-rule="evenodd" d="M322.032 626.411C285.239 611.255 281.988 554.269 246.955 535.384C205.955 513.282 151.267 535.895 110.924 512.611C64.3613 485.737 -17.9966 444.226 3.51543 394.882C32.8539 327.586 170.497 371.875 201.325 305.251C229.455 244.459 110.222 183.485 130.83 119.737C146.102 72.4911 223.527 84.5862 273.068 83.3168C316.728 82.1981 355.607 108.295 399.042 112.864C444.846 117.682 491.76 96.3546 535.463 110.918C582.599 126.626 636.619 151.392 654.276 197.92C672.565 246.116 648.171 301.667 625.395 347.903C606.622 386.015 545.98 395.487 536.546 436.924C524.58 489.482 596.121 546.281 569.557 593.158C547.122 632.748 481.534 607.415 436.506 613.465C397.963 618.643 358 641.227 322.032 626.411Z" fill="url(#paint3_linear_49_740)" style="mix-blend-mode:hard-light"/>
<defs>
<linearGradient id="paint0_linear_49_740" x1="509" y1="-24" x2="509" y2="923" gradientUnits="userSpaceOnUse">
<stop stop-color="#00DDDD"/>
<stop offset="1" stop-color="#0042DD"/>
</linearGradient>
<linearGradient id="paint1_linear_49_740" x1="509" y1="-24" x2="509" y2="923" gradientUnits="userSpaceOnUse">
<stop stop-color="#00DDDD"/>
<stop offset="1" stop-color="#0042DD"/>
</linearGradient>
<linearGradient id="paint2_linear_49_740" x1="509" y1="-24" x2="509" y2="923" gradientUnits="userSpaceOnUse">
<stop stop-color="#00DDDD"/>
<stop offset="1" stop-color="#0042DD"/>
</linearGradient>
<linearGradient id="paint3_linear_49_740" x1="509" y1="-24" x2="509" y2="923" gradientUnits="userSpaceOnUse">
<stop stop-color="#00DDDD"/>
<stop offset="1" stop-color="#0042DD"/>
</linearGradient>
</defs>
</svg>
